<mxfile host="app.diagrams.net" modified="2024-07-15T10:06:55.489Z" agent="Mozilla/5.0 (Windows NT 10.0; Win64; x64) AppleWebKit/537.36 (KHTML, like Gecko) Chrome/126.0.0.0 Safari/537.36" version="24.6.5" etag="x1MIW49PuLmHuYcOGqLj" type="github">
  <diagram name="페이지-1" id="ALM42W93RqT7qPNg7CiV">
    <mxGraphModel>
      <root>
        <mxCell id="0" />
        <mxCell id="1" parent="0" />
      </root>
    </mxGraphModel>
  </diagram>
</mxfile>
